<?xml version="1.0" encoding="UTF-8"?> <!-- Generator: Adobe Illustrator 23.0.4, SVG Export Plug-In . SVG Version: 6.00 Build 0) --> <svg xmlns="http://www.w3.org/2000/svg" xmlns:xlink="http://www.w3.org/1999/xlink" version="1.1" id="Layer_1" x="0px" y="0px" width="1200px" height="1200px" viewBox="0 0 1200 1200" style="enable-background:new 0 0 1200 1200;" xml:space="preserve"> <style type="text/css"> .st0{fill:url(#SVGID_1_);} </style> <linearGradient id="SVGID_1_" gradientUnits="userSpaceOnUse" x1="-1.7209" y1="1231.5276" x2="1246.7551" y2="-78.7925"> <stop offset="0" style="stop-color:#272361"></stop> <stop offset="1" style="stop-color:#9C1F60"></stop> </linearGradient> <path class="st0" d="M254.2,643.6v178.2H135.1V310.7h197.1c29.6,0,56.3,4.3,80.1,12.8c23.7,8.5,43.9,20.4,60.4,35.6 c16.5,15.2,29.2,33.3,38,54.2c8.8,20.9,13.2,43.7,13.2,68.3c0,24.5-4.4,46.6-13.2,66.4c-8.8,19.8-21.5,36.9-38,51 c-16.5,14.2-36.6,25.1-60.4,32.9c-23.7,7.7-50.4,11.6-80.1,11.6H254.2z M254.2,549.8h78c12.4,0,23.1-1.7,32.1-5 c8.9-3.3,16.3-8,22.1-14c5.8-6,10-13.2,12.7-21.5c2.7-8.3,4.1-17.3,4.1-27c0-10.4-1.4-20.2-4.1-29.6c-2.7-9.3-7-17.6-12.7-24.7 c-5.8-7.1-13.1-12.9-22.1-17.1c-8.9-4.3-19.6-6.4-32.1-6.4h-78V549.8z M720,347v93.1h60.4v81H720v171.3c0,7.4,0.6,13.5,1.9,18.3 c1.2,4.8,3.3,8.7,6.1,11.6c2.8,2.9,6.6,4.9,11.4,6.1c4.7,1.2,10.6,1.7,17.6,1.7c6.6,0,12-0.2,16.3-0.5c4.3-0.3,8.4-0.9,12.2-1.6 v83.4c-10,3.2-20.1,5.7-30.5,7.4c-10.4,1.7-21.7,2.6-33.9,2.6c-18.3,0-34.7-2.1-49-6.4c-14.4-4.3-26.5-11-36.3-20.2 c-9.8-9.2-17.3-21.1-22.4-35.6c-5.1-14.5-7.6-32-7.6-52.3V521.1h-46.8v-81h46.8V347H720z M988.4,130.1h-7.7V81l-11.6,0.2v-5.5 l19.2-2.1V130.1z M1015.5,124.9c3.7,0,6.7-1.4,9-4.2c2.2-2.8,3.4-7,3.4-12.6v-2.6c-1.3,1.8-2.9,3.2-4.8,4.2c-1.9,0.9-4,1.4-6.4,1.4 c-5.5,0-9.8-1.7-13-5.1c-3.2-3.4-4.8-8-4.8-14c0-5.7,1.7-10.3,5.1-13.9c3.4-3.6,7.5-5.4,12.4-5.4c5.9,0,10.6,1.8,14,5.5 s5.1,9.1,5.1,16.3V108c0,7.4-1.8,13-5.5,17c-3.7,3.9-8.5,5.9-14.4,5.9c-2,0-4-0.2-6.1-0.6c-2.1-0.4-3.9-1-5.5-1.7l1.2-5.9 c1.5,0.8,3.1,1.4,4.8,1.7C1011.5,124.7,1013.4,124.9,1015.5,124.9z M1016.7,105.1c2.8,0,5.2-0.6,7-1.8c1.9-1.2,3.2-2.8,4.1-4.7v-4.9 c0-4.9-1-8.7-2.9-11.2c-1.9-2.5-4.7-3.8-8.3-3.8c-2.8,0-5.2,1.2-7.1,3.7c-2,2.5-3,5.7-3,9.6c0,3.9,0.9,7,2.7,9.4 C1011.1,103.9,1013.6,105.1,1016.7,105.1z M1060.3,124.9c3.7,0,6.7-1.4,9-4.2c2.2-2.8,3.4-7,3.4-12.6v-2.6c-1.3,1.8-2.9,3.2-4.8,4.2 c-1.9,0.9-4,1.4-6.4,1.4c-5.5,0-9.8-1.7-13-5.1c-3.2-3.4-4.8-8-4.8-14c0-5.7,1.7-10.3,5.1-13.9c3.4-3.6,7.5-5.4,12.4-5.4 c5.9,0,10.6,1.8,14,5.5s5.1,9.1,5.1,16.3V108c0,7.4-1.8,13-5.5,17c-3.7,3.9-8.5,5.9-14.4,5.9c-2,0-4-0.2-6.1-0.6 c-2.1-0.4-3.9-1-5.5-1.7l1.2-5.9c1.5,0.8,3.1,1.4,4.8,1.7C1056.2,124.7,1058.1,124.9,1060.3,124.9z M1061.5,105.1 c2.8,0,5.2-0.6,7-1.8c1.9-1.2,3.2-2.8,4.1-4.7v-4.9c0-4.9-1-8.7-2.9-11.2s-4.7-3.8-8.3-3.8c-2.8,0-5.2,1.2-7.1,3.7 c-2,2.5-3,5.7-3,9.6c0,3.9,0.9,7,2.7,9.4C1055.9,103.9,1058.4,105.1,1061.5,105.1z M1124.5,88.3c0,3-0.8,5.5-2.5,7.7s-3.9,3.9-6.7,5 c3.3,1.1,5.9,2.9,7.8,5.4c2,2.4,2.9,5.2,2.9,8.4c0,5.2-1.7,9.2-5.1,12c-3.4,2.8-7.8,4.1-13.3,4.1c-5.5,0-10-1.4-13.4-4.1 c-3.4-2.8-5.1-6.8-5.1-12c0-3.2,1-6,2.9-8.4c1.9-2.4,4.5-4.2,7.8-5.4c-2.8-1.1-5-2.7-6.6-5c-1.6-2.2-2.4-4.8-2.4-7.7 c0-5,1.5-8.8,4.6-11.5s7.1-4.1,12.2-4.1c5,0,9,1.4,12.2,4.1C1122.9,79.5,1124.5,83.3,1124.5,88.3z M1118.4,114.6 c0-3.1-1-5.6-3.1-7.6c-2-2-4.6-3-7.8-3c-3.2,0-5.8,1-7.7,3c-2,2-3,4.5-3,7.6c0,3.2,1,5.7,3,7.5s4.6,2.7,7.8,2.7 c3.2,0,5.8-0.9,7.8-2.8S1118.4,117.8,1118.4,114.6z M1116.8,88.5c0-2.8-0.9-5.1-2.6-7s-4-2.8-6.6-2.8c-2.7,0-4.9,0.9-6.6,2.7 c-1.7,1.8-2.5,4.1-2.5,7c0,2.9,0.8,5.2,2.5,6.9c1.7,1.7,3.9,2.6,6.7,2.6c2.7,0,4.9-0.9,6.6-2.6S1116.8,91.3,1116.8,88.5z M1156.4,43.6v1112.7H43.6V43.6H1156.4L1156.4,43.6z M1200,0H0v1200h1200V0L1200,0z M161,1039v43.2h-25.3V959.6h47.8 c7.2,0,13.7,1,19.4,3c5.7,2,10.5,4.8,14.5,8.5c4,3.6,7,7.9,9.1,12.9c2.1,5,3.1,10.4,3.1,16.2c0,6-1,11.3-3.1,16.1 c-2.1,4.8-5.1,8.8-9.1,12.2c-4,3.4-8.8,6-14.5,7.8c-5.7,1.8-12.2,2.7-19.4,2.7H161z M161,1018.6h22.6c3.6,0,6.7-0.4,9.3-1.3 c2.6-0.9,4.7-2.1,6.4-3.7c1.7-1.6,2.9-3.5,3.7-5.8c0.8-2.2,1.2-4.7,1.2-7.3c0-2.6-0.4-5.2-1.2-7.6c-0.8-2.4-2-4.6-3.7-6.5 c-1.7-1.9-3.8-3.4-6.4-4.5c-2.6-1.1-5.7-1.7-9.3-1.7H161V1018.6z M286.3,1083.9c-7.1,0-13.4-1.2-19-3.5c-5.6-2.3-10.3-5.4-14.2-9.4 c-3.9-4-6.9-8.7-8.9-14c-2.1-5.4-3.1-11.1-3.1-17.2v-3.3c0-6.9,1-13.2,3-19c2-5.8,4.8-10.7,8.5-14.9c3.7-4.2,8.1-7.4,13.4-9.7 c5.2-2.3,11.1-3.5,17.6-3.5c6.6,0,12.4,1.1,17.4,3.2c5,2.2,9.2,5.2,12.6,9.1c3.4,3.9,6,8.6,7.7,14.1c1.7,5.5,2.6,11.6,2.6,18.4v10.4 h-58c0.4,3,1.2,5.7,2.4,8.1c1.2,2.4,2.8,4.5,4.6,6.2c1.9,1.7,4.1,3,6.6,4c2.5,1,5.4,1.4,8.5,1.4c4.4,0,8.5-0.8,12.3-2.5 c3.8-1.7,7-4.2,9.7-7.7l12,13.4c-1.5,2.1-3.3,4.1-5.5,6.1c-2.2,2-4.8,3.7-7.7,5.3c-3,1.5-6.3,2.8-10.1,3.7 C294.8,1083.5,290.7,1083.9,286.3,1083.9z M283.5,1009.1c-2.6,0-5,0.5-6.9,1.4c-2,0.9-3.7,2.2-5.1,3.9c-1.4,1.7-2.6,3.6-3.5,5.9 c-0.9,2.3-1.5,4.9-1.9,7.7h33.9v-1.9c-0.1-2.4-0.4-4.7-1.1-6.7c-0.6-2.1-1.6-3.9-2.9-5.4c-1.3-1.5-3-2.7-5.1-3.5 C288.7,1009.6,286.3,1009.1,283.5,1009.1z M388.8,1013.9c-1.2-0.2-2.7-0.3-4.3-0.5c-1.7-0.1-3.1-0.2-4.4-0.2 c-4.8,0-8.6,0.8-11.6,2.4s-5.1,3.9-6.5,6.9v59.6h-24.3v-91.1h23l0.7,10.9c2.3-3.9,5.1-7,8.5-9.2c3.4-2.2,7.3-3.3,11.8-3.3 c1.3,0,2.7,0.1,4.1,0.3c1.4,0.2,2.6,0.5,3.5,0.8L388.8,1013.9z M400.3,967.5c0-3.6,1.2-6.7,3.7-9c2.4-2.4,5.8-3.5,10-3.5 c2.1,0,4,0.3,5.6,0.9c1.7,0.6,3.1,1.5,4.3,2.6c1.2,1.1,2.1,2.5,2.7,4c0.6,1.5,1,3.2,1,5c0,1.9-0.3,3.6-1,5.1c-0.6,1.5-1.6,2.9-2.7,4 c-1.2,1.1-2.6,2-4.3,2.6c-1.7,0.6-3.6,0.9-5.6,0.9c-2.1,0-4-0.3-5.6-0.9c-1.7-0.6-3.1-1.5-4.3-2.6c-1.2-1.1-2.1-2.5-2.7-4 C400.7,971.1,400.3,969.4,400.3,967.5z M426.2,1082.3h-24.4v-91.1h24.4V1082.3z M442.5,1035.8c0-6.6,1-12.8,2.9-18.4 c1.9-5.7,4.7-10.6,8.3-14.7c3.6-4.1,8.2-7.4,13.5-9.7c5.4-2.4,11.5-3.5,18.3-3.5c6.9,0,13.1,1.2,18.4,3.5c5.4,2.4,9.9,5.6,13.6,9.7 c3.7,4.1,6.5,9,8.4,14.7c1.9,5.7,2.9,11.8,2.9,18.4v1.8c0,6.7-1,12.8-2.9,18.5c-1.9,5.6-4.7,10.5-8.4,14.7 c-3.7,4.1-8.2,7.4-13.5,9.7c-5.3,2.3-11.5,3.5-18.4,3.5s-13-1.2-18.4-3.5c-5.4-2.3-9.9-5.6-13.6-9.7c-3.7-4.1-6.5-9-8.4-14.7 c-1.9-5.6-2.9-11.8-2.9-18.5V1035.8z M466.8,1037.6c0,3.7,0.3,7.2,1,10.4c0.7,3.3,1.8,6.1,3.2,8.5c1.5,2.4,3.4,4.3,5.8,5.7 c2.4,1.4,5.3,2.1,8.8,2.1c3.4,0,6.2-0.7,8.6-2.1c2.4-1.4,4.3-3.3,5.9-5.7c1.5-2.4,2.6-5.2,3.3-8.5c0.7-3.3,1-6.7,1-10.4v-1.8 c0-3.6-0.3-7-1-10.2c-0.7-3.2-1.8-6.1-3.3-8.5c-1.5-2.4-3.5-4.4-5.9-5.8c-2.4-1.4-5.3-2.1-8.8-2.1c-3.4,0-6.2,0.7-8.6,2.1 c-2.4,1.4-4.3,3.4-5.8,5.8c-1.5,2.4-2.6,5.3-3.2,8.5c-0.7,3.2-1,6.6-1,10.2V1037.6z M540,1036c0-6.9,0.8-13.2,2.4-19 s3.9-10.6,6.9-14.7c3-4.1,6.8-7.3,11.2-9.5c4.4-2.2,9.5-3.4,15.2-3.4c4.7,0,8.8,0.9,12.4,2.6c3.6,1.7,6.8,4.2,9.6,7.3v-46.5h24.4 v129.4h-22l-1.2-9.7c-2.9,3.6-6.2,6.4-10,8.4c-3.8,2-8.3,3-13.4,3c-5.6,0-10.6-1.2-15-3.5c-4.4-2.3-8.1-5.5-11.2-9.6 c-3-4.1-5.3-9-6.9-14.6c-1.6-5.6-2.4-11.8-2.4-18.4V1036z M564.3,1037.8c0,3.7,0.3,7.2,0.9,10.4c0.6,3.2,1.6,6,3,8.4 c1.4,2.4,3.2,4.3,5.4,5.6c2.2,1.4,4.9,2.1,8.1,2.1c3.9,0,7.2-0.8,9.8-2.5c2.6-1.7,4.6-4,6.1-7v-36c-1.5-3-3.5-5.4-6.1-7 c-2.6-1.7-5.8-2.5-9.6-2.5c-3.2,0-5.9,0.7-8.2,2.1c-2.2,1.4-4.1,3.3-5.4,5.7c-1.4,2.4-2.4,5.3-3,8.5c-0.6,3.3-1,6.8-1,10.5V1037.8z M640.8,967.5c0-3.6,1.2-6.7,3.7-9c2.4-2.4,5.8-3.5,10-3.5c2.1,0,4,0.3,5.6,0.9c1.7,0.6,3.1,1.5,4.3,2.6c1.2,1.1,2.1,2.5,2.7,4 c0.6,1.5,1,3.2,1,5c0,1.9-0.3,3.6-1,5.1c-0.6,1.5-1.6,2.9-2.7,4c-1.2,1.1-2.6,2-4.3,2.6c-1.7,0.6-3.6,0.9-5.6,0.9 c-2.1,0-4-0.3-5.6-0.9c-1.7-0.6-3.1-1.5-4.3-2.6c-1.2-1.1-2.1-2.5-2.7-4C641.1,971.1,640.8,969.4,640.8,967.5z M666.7,1082.3h-24.4 v-91.1h24.4V1082.3z M724.6,1064.3c2.2,0,4.3-0.3,6.1-1c1.9-0.6,3.5-1.6,4.8-2.7s2.4-2.6,3.2-4.3c0.8-1.7,1.2-3.5,1.2-5.6h22.8 c-0.1,4.8-1.1,9.3-3,13.4c-2,4.1-4.6,7.6-8,10.5s-7.3,5.2-11.9,6.9c-4.6,1.6-9.5,2.4-14.8,2.4c-7.1,0-13.3-1.2-18.5-3.6 c-5.3-2.4-9.7-5.6-13.1-9.8c-3.5-4.1-6.1-9-7.8-14.6c-1.7-5.6-2.6-11.6-2.6-18.1v-2.4c0-6.5,0.9-12.5,2.6-18.1 c1.7-5.6,4.4-10.5,7.8-14.7c3.5-4.2,7.8-7.4,13.1-9.8c5.2-2.4,11.4-3.6,18.4-3.6c5.6,0,10.7,0.8,15.4,2.5c4.6,1.7,8.6,4,11.9,7.1 c3.3,3.1,5.9,6.8,7.7,11.2c1.9,4.4,2.8,9.3,2.9,14.8H740c-0.1-2.2-0.4-4.3-1.1-6.2c-0.7-1.9-1.7-3.6-3-5.1c-1.3-1.4-2.9-2.6-4.8-3.4 c-1.9-0.8-4.1-1.3-6.6-1.3c-3.5,0-6.4,0.7-8.7,2.2c-2.2,1.5-4,3.4-5.3,5.9c-1.3,2.4-2.1,5.3-2.6,8.5c-0.5,3.2-0.7,6.5-0.7,9.9v2.4 c0,3.5,0.2,6.8,0.7,10c0.4,3.2,1.3,6,2.6,8.4c1.3,2.4,3,4.3,5.3,5.8C718,1063.6,721,1064.3,724.6,1064.3z"></path> </svg> 