<svg id="Layer_1" data-name="Layer 1" xmlns="http://www.w3.org/2000/svg" viewBox="0 0 1103.64 1167.1"><defs><style>.cls-1{fill:#385991;}.cls-2{fill:#3e60aa;}.cls-3{fill:#5a95ff;}.cls-4{fill:#50e995;}</style></defs><polygon class="cls-1" points="148.39 783.52 148.1 384.5 437.53 533.75 349.51 653.64 148.39 783.52"/><polygon class="cls-2" points="148.1 384.5 258.74 441.86 547.17 252.26 841.64 443.88 952.58 381.35 547.17 111.08 148.1 384.5"/><polygon class="cls-2" points="258.74 576.99 547.17 385.38 952.58 655.66 841.64 714.15 547.17 518.5 349.51 653.64 258.74 576.99"/><polygon class="cls-3" points="258.74 441.86 258.74 576.99 547.17 385.38 547.17 252.26 258.74 441.86"/><polygon class="cls-3" points="148.39 783.52 148.39 925.42 547.61 655.45 547.17 518.5 347.26 654.15 148.39 783.52"/><polygon class="cls-1" points="841.64 443.87 952.58 381.35 952.58 514.47 841.64 443.87"/><polygon class="cls-1" points="260.13 982.4 148.19 1056.02 148.39 924.45 260.13 982.4"/><polygon class="cls-1" points="952.58 655.66 841.64 714.15 841.64 848.21 781.17 808.31 759.71 928.83 955.54 1055.17 952.58 655.66"/><polygon class="cls-2" points="841.64 848.21 547.17 654.13 148.4 925.42 254.33 986.17 547.8 787.24 759.71 928.83 841.64 848.21"/><polygon class="cls-4" points="547.17 252.26 547.17 385.38 952.58 655.66 952.58 514.47 547.17 252.26"/><polygon class="cls-4" points="547.17 518.5 547.17 654.13 841.64 848.21 841.64 714.15 547.17 518.5"/></svg>